<?xml version="1.0" encoding="UTF-8" standalone="no"?>
<!-- Created with Inkscape (http://www.inkscape.org/) -->

<svg
   width="150.18929mm"
   height="150.18307mm"
   viewBox="0 0 150.18929 150.18308"
   version="1.1"
   id="svg5"
   xml:space="preserve"
   inkscape:version="1.2 (dc2aeda, 2022-05-15)"
   sodipodi:docname="Bewertung.svg"
   xmlns:inkscape="http://www.inkscape.org/namespaces/inkscape"
   xmlns:sodipodi="http://sodipodi.sourceforge.net/DTD/sodipodi-0.dtd"
   xmlns="http://www.w3.org/2000/svg"
   xmlns:svg="http://www.w3.org/2000/svg"><sodipodi:namedview
     id="namedview7"
     pagecolor="#ffffff"
     bordercolor="#000000"
     borderopacity="0.25"
     inkscape:showpageshadow="2"
     inkscape:pageopacity="0.0"
     inkscape:pagecheckerboard="0"
     inkscape:deskcolor="#d1d1d1"
     inkscape:document-units="mm"
     showgrid="false"
     showborder="true"
     inkscape:zoom="0.50882011"
     inkscape:cx="407.80621"
     inkscape:cy="393.06622"
     inkscape:window-width="1440"
     inkscape:window-height="900"
     inkscape:window-x="318"
     inkscape:window-y="1440"
     inkscape:window-maximized="0"
     inkscape:current-layer="svg5" /><defs
     id="defs2" /><path
     id="path21694"
     style="color:#000000;fill:#ce9999;fill-opacity:1;stroke:none;stroke-opacity:1"
     d="m 77.156014,0.023255 -0.22014,25.006742 c 21.34958,0.758765 39.155736,14.659809 45.633906,33.927645 l 23.78976,-7.498767 C 136.61441,22.251735 109.34215,0.900267 77.156014,0.023255 Z m 37.523806,16.485298 2.13786,6.36447 6.95151,0.371037 -5.39244,3.999755 1.79524,6.725688 -5.47046,-3.892269 -5.84203,3.785816 2.01177,-6.405294 -5.40587,-4.385779 6.71328,-0.06666 z" /><path
     id="path21697"
     style="color:#000000;fill:#ce9999;fill-opacity:1;stroke:none;stroke-opacity:1"
     d="m 147.13779,53.93986 -23.80527,7.502902 c 1.20937,4.332701 1.85674,8.908237 1.85674,13.644645 0,16.419363 -7.76549,30.908293 -19.8484,40.025983 l 14.43632,20.24217 c 18.4265,-13.71374 30.4121,-35.64943 30.4121,-60.268153 0,-7.336911 -1.06942,-14.433743 -3.05149,-21.147547 z m -12.69845,32.248161 2.13785,6.363949 6.95152,0.37104 -5.39244,4.00027 1.79576,6.72569 -5.47047,-3.89227 -5.84202,3.78582 2.01125,-6.40581 -5.40588,-4.38578 6.71381,-0.0667 z" /><path
     id="path21700"
     style="color:#000000;fill:#ce9999;fill-opacity:1;stroke:none;stroke-opacity:1"
     d="m 46.588371,116.36654 -14.796513,19.99258 c 12.255311,8.69876 27.206184,13.82396 43.303816,13.82396 15.77883,0 30.452656,-4.92734 42.568976,-13.31443 l -14.43633,-20.24321 c -8.002256,5.40805 -17.676126,8.55762 -28.132646,8.55762 -10.620616,0 -20.432624,-3.25179 -28.507303,-8.81652 z m 29.009083,12.25765 2.13786,6.36447 6.95151,0.37104 -5.39244,3.99975 1.79524,6.72621 -5.47046,-3.89227 -5.842024,3.78581 2.01176,-6.40581 -5.405872,-4.38578 6.713282,-0.0667 z" /><path
     id="path21703"
     style="color:#000000;fill:#ce9999;fill-opacity:1;stroke:none;stroke-opacity:1"
     d="M 3.42098,52.710478 C 1.199026,59.784372 0,67.30175 0,75.087407 0,99.38646 11.678282,121.06948 29.699996,134.81503 L 44.48669,114.83588 C 32.611069,105.70325 24.999507,91.34165 24.999507,75.087407 c 0,-5.032913 0.733109,-9.88318 2.092896,-14.454415 z m 12.459704,31.397567 2.137854,6.363955 6.951514,0.37103 -5.392436,4.00028 1.795756,6.72568 -5.470467,-3.89226 -5.842021,3.78581 2.011247,-6.40581 -5.405871,-4.38578 6.713802,-0.0667 z" /><path
     id="path21706"
     style="color:#000000;fill:#ce9999;fill-opacity:1;stroke:none;stroke-opacity:1"
     d="M 74.55617,0 C 42.160458,0.231019 14.496949,21.207439 4.247803,50.246029 l 23.650236,7.915279 C 34.709265,38.986564 52.805337,25.318081 74.33603,25.003125 Z m -34.755499,13.908712 2.137854,6.36447 6.951514,0.37052 -5.392436,4.000272 1.795239,6.725688 -5.470467,-3.892269 -5.841504,3.785815 2.011247,-6.405293 -5.405871,-4.386296 6.713285,-0.06615 z" /><path
     sodipodi:type="star"
     style="opacity:1;fill:#ce9999;fill-opacity:0;stroke:none;stroke-width:2.5;stroke-dasharray:none;stroke-opacity:1"
     id="path17539"
     inkscape:flatsided="false"
     sodipodi:sides="5"
     sodipodi:cx="41.602936"
     sodipodi:cy="188.4613"
     sodipodi:r1="1.6641177"
     sodipodi:r2="44.611267"
     sodipodi:arg1="-3.1415923"
     sodipodi:arg2="-2.5132738"
     inkscape:rounded="0"
     inkscape:randomized="0"
     d="m 39.938818,188.4613 -34.427147,-26.22185 35.577025,24.63918 14.299893,-40.84516 -12.439353,41.44969 43.264967,0.97816 -43.264968,0.97813 12.439327,41.44969 -14.299867,-40.84517 -35.5770409,24.63917 z"
     inkscape:transform-center-x="6.8087027"
     inkscape:transform-center-y="-1.7806582"
     transform="translate(-30.46119,-13.7604)" /></svg>
